<svg width="17" height="17" viewBox="0 0 17 17" fill="none" xmlns="http://www.w3.org/2000/svg">
<path d="M4.55825 13.2693C4.80908 13.2693 5.01917 13.1844 5.1885 13.0147C5.35767 12.8451 5.44225 12.6348 5.44225 12.384C5.44225 12.1332 5.35742 11.9231 5.18775 11.7537C5.01808 11.5846 4.80783 11.5 4.557 11.5C4.30617 11.5 4.09617 11.5848 3.927 11.7545C3.75767 11.9242 3.673 12.1344 3.673 12.3853C3.673 12.6361 3.75783 12.8461 3.9275 13.0153C4.09733 13.1846 4.30758 13.2693 4.55825 13.2693ZM4.55825 9.3845C4.80908 9.3845 5.01917 9.29967 5.1885 9.13C5.35767 8.96033 5.44225 8.75008 5.44225 8.49925C5.44225 8.24842 5.35742 8.03842 5.18775 7.86925C5.01808 7.70008 4.80783 7.6155 4.557 7.6155C4.30617 7.6155 4.09617 7.70033 3.927 7.87C3.75767 8.03967 3.673 8.24992 3.673 8.50075C3.673 8.75158 3.75783 8.96158 3.9275 9.13075C4.09733 9.29992 4.30758 9.3845 4.55825 9.3845ZM4.55825 5.5C4.80908 5.5 5.01917 5.41517 5.1885 5.2455C5.35767 5.07583 5.44225 4.86558 5.44225 4.61475C5.44225 4.36392 5.35742 4.15392 5.18775 3.98475C5.01808 3.81542 4.80783 3.73075 4.557 3.73075C4.30617 3.73075 4.09617 3.81558 3.927 3.98525C3.75767 4.15492 3.673 4.36517 3.673 4.616C3.673 4.86683 3.75783 5.07692 3.9275 5.24625C4.09733 5.41542 4.30758 5.5 4.55825 5.5ZM8.34625 13.1345H12.5385C12.751 13.1345 12.9291 13.0626 13.0727 12.9187C13.2166 12.7751 13.2885 12.5969 13.2885 12.3842C13.2885 12.1718 13.2166 11.9937 13.0727 11.85C12.9291 11.7065 12.751 11.6348 12.5385 11.6348H8.34625C8.13375 11.6348 7.95558 11.7066 7.81175 11.8503C7.66808 11.9941 7.59625 12.1723 7.59625 12.385C7.59625 12.5975 7.66808 12.7756 7.81175 12.9193C7.95558 13.0628 8.13375 13.1345 8.34625 13.1345ZM8.34625 9.25H12.5385C12.751 9.25 12.9291 9.17808 13.0727 9.03425C13.2166 8.89042 13.2885 8.71225 13.2885 8.49975C13.2885 8.28708 13.2166 8.109 13.0727 7.9655C12.9291 7.82183 12.751 7.75 12.5385 7.75H8.34625C8.13375 7.75 7.95558 7.82192 7.81175 7.96575C7.66808 8.10958 7.59625 8.28775 7.59625 8.50025C7.59625 8.71292 7.66808 8.891 7.81175 9.0345C7.95558 9.17817 8.13375 9.25 8.34625 9.25ZM8.34625 5.36525H12.5385C12.751 5.36525 12.9291 5.29342 13.0727 5.14975C13.2166 5.00592 13.2885 4.82767 13.2885 4.615C13.2885 4.4025 13.2166 4.22442 13.0727 4.08075C12.9291 3.93725 12.751 3.8655 12.5385 3.8655H8.34625C8.13375 3.8655 7.95558 3.93742 7.81175 4.08125C7.66808 4.22492 7.59625 4.40308 7.59625 4.61575C7.59625 4.82825 7.66808 5.00633 7.81175 5.15C7.95558 5.2935 8.13375 5.36525 8.34625 5.36525ZM1.80775 17C1.30258 17 0.875 16.825 0.525 16.475C0.175 16.125 0 15.6974 0 15.1923V1.80775C0 1.30258 0.175 0.875 0.525 0.525C0.875 0.175 1.30258 0 1.80775 0H15.1923C15.6974 0 16.125 0.175 16.475 0.525C16.825 0.875 17 1.30258 17 1.80775V15.1923C17 15.6974 16.825 16.125 16.475 16.475C16.125 16.825 15.6974 17 15.1923 17H1.80775Z" fill="url(#paint0_linear_247_933)"/>
<defs>
<linearGradient id="goals_grad" x1="8.5" y1="17" x2="8.5" y2="0" gradientUnits="userSpaceOnUse">
<stop stop-color="#6316A5"/>
<stop offset="1" stop-color="#2577CA"/>
</linearGradient>
</defs>
</svg>
