<svg width="15" height="17" viewBox="0 0 15 17" fill="none" xmlns="http://www.w3.org/2000/svg">
<path d="M1.49997 14.9423H4.84615V9.9038C4.84615 9.64772 4.93277 9.43306 5.106 9.25982C5.27923 9.08659 5.4939 8.99998 5.75 8.99998H9.24995C9.50605 8.99998 9.72072 9.08659 9.89395 9.25982C10.0672 9.43306 10.1538 9.64772 10.1538 9.9038V14.9423H13.5V6.09612C13.5 6.04484 13.4888 5.99837 13.4663 5.9567C13.4439 5.91503 13.4134 5.87817 13.375 5.84612L7.68268 1.56727C7.63139 1.52241 7.57049 1.49997 7.49997 1.49997C7.42946 1.49997 7.36856 1.52241 7.31727 1.56727L1.62497 5.84612C1.58652 5.87817 1.55607 5.91503 1.53362 5.9567C1.51119 5.99837 1.49997 6.04484 1.49997 6.09612V14.9423ZM0 14.9423V6.09612C0 5.80991 0.064025 5.53876 0.192075 5.28268C0.320125 5.02659 0.497125 4.8157 0.723075 4.65L6.41537 0.361549C6.73126 0.120516 7.09227 0 7.49842 0C7.90457 0 8.26662 0.120516 8.58457 0.361549L14.2769 4.65C14.5028 4.8157 14.6798 5.02659 14.8079 5.28268C14.9359 5.53876 15 5.80991 15 6.09612V14.9423C15 15.3512 14.8522 15.7035 14.5567 15.999C14.2612 16.2945 13.9089 16.4422 13.5 16.4422H9.55767C9.30159 16.4422 9.08692 16.3556 8.91367 16.1824C8.74044 16.0091 8.65382 15.7945 8.65382 15.5384V10.4999H6.34613V15.5384C6.34613 15.7945 6.25951 16.0091 6.08627 16.1824C5.91302 16.3556 5.69836 16.4422 5.44227 16.4422H1.49997C1.09101 16.4422 0.738775 16.2945 0.443275 15.999C0.147758 15.7035 0 15.3512 0 14.9423Z" fill="#D1D5DB"/>
</svg>
