<svg width="24" height="21" viewBox="0 0 24 21" fill="none" xmlns="http://www.w3.org/2000/svg">
<g filter="url(#filter0_d_256_6055)">
<path d="M5 18C4.45 18 3.97933 17.8043 3.588 17.413C3.19667 17.0217 3.00067 16.5507 3 16V2C3 1.45 3.196 0.979333 3.588 0.588C3.98 0.196667 4.45067 0.000666667 5 0H11C11.2833 0 11.521 0.0960001 11.713 0.288C11.905 0.48 12.0007 0.717333 12 1C11.9993 1.28267 11.9033 1.52033 11.712 1.713C11.5207 1.90567 11.2833 2.00133 11 2H5V16H11C11.2833 16 11.521 16.096 11.713 16.288C11.905 16.48 12.0007 16.7173 12 17C11.9993 17.2827 11.9033 17.5203 11.712 17.713C11.5207 17.9057 11.2833 18.0013 11 18H5ZM17.175 10H10C9.71667 10 9.47933 9.904 9.288 9.712C9.09667 9.52 9.00067 9.28267 9 9C8.99933 8.71733 9.09533 8.48 9.288 8.288C9.48067 8.096 9.718 8 10 8H17.175L15.3 6.125C15.1167 5.94167 15.025 5.71667 15.025 5.45C15.025 5.18333 15.1167 4.95 15.3 4.75C15.4833 4.55 15.7167 4.44567 16 4.437C16.2833 4.42833 16.525 4.52433 16.725 4.725L20.3 8.3C20.5 8.5 20.6 8.73333 20.6 9C20.6 9.26667 20.5 9.5 20.3 9.7L16.725 13.275C16.525 13.475 16.2877 13.571 16.013 13.563C15.7383 13.555 15.5007 13.4507 15.3 13.25C15.1167 13.05 15.0293 12.8127 15.038 12.538C15.0467 12.2633 15.1423 12.034 15.325 11.85L17.175 10Z" fill="#B3B3B3"/>
<path d="M11 0.5C11.1571 0.5 11.2656 0.547826 11.3594 0.641602C11.4531 0.735323 11.5004 0.843282 11.5 0.999023C11.4996 1.15585 11.4517 1.26534 11.3574 1.36035C11.265 1.4534 11.1578 1.50073 11.002 1.5H4.5V16.5H11C11.1571 16.5 11.2656 16.5478 11.3594 16.6416C11.4531 16.7353 11.5004 16.8433 11.5 16.999C11.4996 17.1558 11.4517 17.2653 11.3574 17.3604C11.265 17.4534 11.1578 17.5007 11.002 17.5H5C4.58354 17.5 4.23963 17.3578 3.94141 17.0596C3.68039 16.7986 3.53854 16.5021 3.50684 16.1523L3.5 15.999V2C3.5 1.58381 3.64261 1.2397 3.94141 0.941406C4.20313 0.68025 4.49936 0.538592 4.84766 0.506836L5.00098 0.5H11ZM16.0156 4.93652C16.1245 4.93325 16.2127 4.95649 16.293 5.01172L16.3711 5.07812L19.9463 8.65332C20.0588 8.76587 20.0996 8.87461 20.0996 9C20.0996 9.12539 20.0588 9.23413 19.9463 9.34668L16.3711 12.9219C16.2653 13.0275 16.1598 13.0673 16.0273 13.0635C15.8885 13.0594 15.7741 13.0118 15.6631 12.9043C15.5737 12.8039 15.5336 12.6964 15.5381 12.5537C15.543 12.3978 15.5915 12.2914 15.6787 12.2031L18.3818 9.5H10C9.84307 9.5 9.73538 9.45234 9.64258 9.35938C9.54874 9.26521 9.50041 9.15597 9.5 8.99902C9.49963 8.84403 9.54669 8.73634 9.64062 8.64258C9.7358 8.54773 9.84488 8.5 10 8.5H18.3818L15.6533 5.77148C15.5668 5.68494 15.5254 5.58833 15.5254 5.4502C15.5254 5.31102 15.5685 5.19746 15.6689 5.08789C15.7567 4.99227 15.8604 4.94127 16.0156 4.93652Z" stroke="url(#paint0_linear_256_6055)"/>
</g>
<defs>
<filter id="filter0_d_256_6055" x="-1" y="0" width="25.6001" height="26" filterUnits="userSpaceOnUse" color-interpolation-filters="sRGB">
<feFlood flood-opacity="0" result="BackgroundImageFix"/>
<feColorMatrix in="SourceAlpha" type="matrix" values="0 0 0 0 0 0 0 0 0 0 0 0 0 0 0 0 0 0 127 0" result="hardAlpha"/>
<feOffset dy="4"/>
<feGaussianBlur stdDeviation="2"/>
<feComposite in2="hardAlpha" operator="out"/>
<feColorMatrix type="matrix" values="0 0 0 0 0 0 0 0 0 0 0 0 0 0 0 0 0 0 0.25 0"/>
<feBlend mode="normal" in2="BackgroundImageFix" result="effect1_dropShadow_256_6055"/>
<feBlend mode="normal" in="SourceGraphic" in2="effect1_dropShadow_256_6055" result="shape"/>
</filter>
<linearGradient id="paint0_linear_256_6055" x1="11.8" y1="18" x2="11.8" y2="0" gradientUnits="userSpaceOnUse">
<stop stop-color="#6316A5"/>
<stop offset="1" stop-color="#2577CA"/>
</linearGradient>
</defs>
</svg>
