<svg width="25" height="25" viewBox="0 0 25 25" fill="none" xmlns="http://www.w3.org/2000/svg">
<path d="M22.6562 10.9375C22.8635 10.9375 23.0622 10.8552 23.2087 10.7087C23.3552 10.5622 23.4375 10.3635 23.4375 10.1562V6.25C23.4375 5.8356 23.2729 5.43817 22.9799 5.14515C22.6868 4.85212 22.2894 4.6875 21.875 4.6875H3.125C2.7106 4.6875 2.31317 4.85212 2.02015 5.14515C1.72712 5.43817 1.5625 5.8356 1.5625 6.25V10.1562C1.5625 10.3635 1.64481 10.5622 1.79132 10.7087C1.93784 10.8552 2.13655 10.9375 2.34375 10.9375C2.75815 10.9375 3.15558 11.1021 3.4486 11.3951C3.74163 11.6882 3.90625 12.0856 3.90625 12.5C3.90625 12.9144 3.74163 13.3118 3.4486 13.6049C3.15558 13.8979 2.75815 14.0625 2.34375 14.0625C2.13655 14.0625 1.93784 14.1448 1.79132 14.2913C1.64481 14.4378 1.5625 14.6365 1.5625 14.8438V18.75C1.5625 19.1644 1.72712 19.5618 2.02015 19.8549C2.31317 20.1479 2.7106 20.3125 3.125 20.3125H21.875C22.2894 20.3125 22.6868 20.1479 22.9799 19.8549C23.2729 19.5618 23.4375 19.1644 23.4375 18.75V14.8438C23.4375 14.6365 23.3552 14.4378 23.2087 14.2913C23.0622 14.1448 22.8635 14.0625 22.6562 14.0625C22.2418 14.0625 21.8444 13.8979 21.5514 13.6049C21.2584 13.3118 21.0938 12.9144 21.0938 12.5C21.0938 12.0856 21.2584 11.6882 21.5514 11.3951C21.8444 11.1021 22.2418 10.9375 22.6562 10.9375ZM21.875 15.5234V18.75H16.4062V16.4062H14.8438V18.75H3.125V15.5234C3.79375 15.3487 4.38568 14.9571 4.80814 14.41C5.23061 13.8629 5.45978 13.1912 5.45978 12.5C5.45978 11.8088 5.23061 11.1371 4.80814 10.59C4.38568 10.0429 3.79375 9.65135 3.125 9.47656V6.25H14.8438V8.59375H16.4062V6.25H21.875V9.47656C21.2063 9.65135 20.6143 10.0429 20.1919 10.59C19.7694 11.1371 19.5402 11.8088 19.5402 12.5C19.5402 13.1912 19.7694 13.8629 20.1919 14.41C20.6143 14.9571 21.2063 15.3487 21.875 15.5234Z" fill="url(#redeem_grad1)"/>
<path d="M14.8438 10.1562H16.4062V14.8438H14.8438V10.1562Z" fill="url(#redeem_grad2)"/>
<defs>
<linearGradient id="redeem_grad1" x1="12.5" y1="20.3125" x2="12.5" y2="4.6875" gradientUnits="userSpaceOnUse">
<stop stop-color="#6316A5"/>
<stop offset="1" stop-color="#2577CA"/>
</linearGradient>
<linearGradient id="redeem_grad2" x1="15.625" y1="14.8438" x2="15.625" y2="10.1562" gradientUnits="userSpaceOnUse">
<stop stop-color="#6316A5"/>
<stop offset="1" stop-color="#2577CA"/>
</linearGradient>
</defs>
</svg>
