<svg width="20" height="21" viewBox="0 0 20 21" fill="none" xmlns="http://www.w3.org/2000/svg">
<path d="M9.86498 13.655C10.3067 13.655 10.7442 13.568 11.1523 13.3989C11.5605 13.2299 11.9313 12.9821 12.2437 12.6697C12.5561 12.3573 12.8039 11.9865 12.9729 11.5783C13.142 11.1702 13.229 10.7328 13.229 10.291C13.229 9.84924 13.142 9.41179 12.9729 9.00366C12.8039 8.59552 12.5561 8.22467 12.2437 7.9123C11.9313 7.59992 11.5605 7.35213 11.1523 7.18307C10.7442 7.01401 10.3067 6.927 9.86498 6.927C8.97279 6.927 8.11714 7.28142 7.48627 7.9123C6.8554 8.54317 6.50098 9.39881 6.50098 10.291C6.50098 11.1832 6.8554 12.0388 7.48627 12.6697C8.11714 13.3006 8.97279 13.655 9.86498 13.655Z" stroke="url(#settings_grad1)" stroke-width="1.5" stroke-linecap="round" stroke-linejoin="round"/>
<path d="M18.716 13.345C18.3198 14.4844 17.708 15.5369 16.914 16.445L14.79 15.963C13.9845 16.6855 13.0274 17.2185 11.989 17.523L11.415 19.602C10.877 19.6985 10.3316 19.7483 9.785 19.751C9.10113 19.7518 8.4194 19.6746 7.753 19.521L7.144 17.375C6.23638 17.0404 5.40206 16.5335 4.687 15.882L2.587 16.422C1.75417 15.4488 1.12905 14.3156 0.75 13.092L2.3 11.37C2.15854 10.4894 2.18193 9.5901 2.369 8.718L0.84 7.123C1.28447 5.8719 1.98893 4.72915 2.907 3.77L5.077 4.31C5.67453 3.83091 6.34019 3.44365 7.052 3.161L7.626 1.037C8.33496 0.853401 9.06368 0.757022 9.796 0.75C10.381 0.75 10.966 0.804 11.541 0.91L12.092 3.023C12.922 3.292 13.7 3.703 14.388 4.24L16.57 3.677C17.4503 4.56423 18.1449 5.61812 18.613 6.777L17.133 8.384C17.4137 9.48524 17.4369 10.6363 17.201 11.748L18.716 13.345Z" stroke="url(#settings_grad2)" stroke-width="1.5" stroke-linecap="round" stroke-linejoin="round"/>
<defs>
<linearGradient id="settings_grad1" x1="9.86498" y1="13.655" x2="9.86498" y2="6.927" gradientUnits="userSpaceOnUse">
<stop stop-color="#6316A5"/>
<stop offset="1" stop-color="#2577CA"/>
</linearGradient>
<linearGradient id="settings_grad2" x1="9.733" y1="19.751" x2="9.733" y2="0.75" gradientUnits="userSpaceOnUse">
<stop stop-color="#6316A5"/>
<stop offset="1" stop-color="#2577CA"/>
</linearGradient>
</defs>
</svg>
